<svg t="1596158675582" class="icon" viewBox="0 0 1024 1024" version="1.1" xmlns="http://www.w3.org/2000/svg" p-id="2729"><path d="M657.408 573.44l-2.048-2.048 2.048 2.048z m38.912-73.728l4.096 2.048c-2.048-2.048-2.048-2.048-4.096-2.048z m-108.544 20.48c2.048-2.048 2.048-4.096 4.096-6.144 4.096-2.048 10.24-8.192 32.768-18.432 0 0 10.24-6.144 16.384-10.24l6.144-4.096 8.192-4.096c-20.48-8.192-4.096-2.048-28.672-10.24 106.496-88.064 124.928-245.76 36.864-352.256s-245.76-124.928-352.256-36.864-124.928 245.76-36.864 352.256c10.24 14.336 22.528 26.624 36.864 36.864C122.88 532.48 0 710.656 0 907.264V919.552c0 22.528 20.48 40.96 43.008 40.96s40.96-20.48 40.96-43.008v-8.192c0-212.992 172.032-385.024 382.976-385.024 65.536 0 57.344-28.672 116.736 4.096l4.096-8.192z m-120.832-81.92c-92.16 0-167.936-73.728-167.936-167.936 0-92.16 73.728-167.936 167.936-167.936 92.16 0 167.936 73.728 167.936 167.936s-75.776 167.936-167.936 167.936z m368.64 565.248c-10.24 0-22.528-4.096-28.672-12.288-12.288-16.384-30.72-28.672-51.2-32.768-20.48 4.096-36.864 16.384-51.2 30.72-10.24 12.288-28.672 16.384-43.008 10.24l-65.536-38.912c-14.336-10.24-20.48-30.72-12.288-47.104 2.048-2.048 2.048-6.144 2.048-8.192 2.048-4.096 2.048-10.24 2.048-14.336 0-18.432-6.144-34.816-16.384-49.152-12.288-12.288-28.672-20.48-45.056-20.48h-2.048c-16.384-2.048-28.672-14.336-28.672-30.72-4.096-18.432-6.144-36.864-6.144-55.296 0-18.432 2.048-36.864 6.144-55.296 0-16.384 12.288-28.672 28.672-30.72h2.048c34.816-2.048 63.488-30.72 61.44-65.536 0-6.144-2.048-12.288-2.048-16.384 0-2.048-2.048-6.144-2.048-8.192-6.144-16.384-2.048-34.816 12.288-47.104l69.632-40.96c14.336-6.144 32.768-4.096 43.008 8.192 12.288 16.384 30.72 26.624 49.152 30.72 18.432-4.096 36.864-14.336 49.152-28.672 10.24-12.288 28.672-16.384 43.008-8.192l67.584 38.912c14.336 10.24 20.48 30.72 12.288 47.104-2.048 2.048-2.048 6.144-2.048 8.192-2.048 4.096-2.048 10.24-2.048 14.336 0 18.432 6.144 34.816 16.384 49.152 12.288 12.288 28.672 20.48 45.056 20.48h2.048c16.384 2.048 28.672 14.336 28.672 30.72 4.096 18.432 6.144 36.864 6.144 55.296 0 18.432-2.048 36.864-6.144 55.296 0 16.384-12.288 28.672-28.672 30.72h-2.048c-34.816 2.048-63.488 30.72-61.44 65.536 0 6.144 2.048 12.288 2.048 16.384 0 2.048 2.048 6.144 2.048 8.192 6.144 16.384 2.048 34.816-12.288 47.104l-67.584 40.96c-4.096 0-10.24 2.048-14.336 2.048z m55.296-77.824c-4.096-12.288-6.144-24.576-6.144-36.864-2.048-55.296 38.912-102.4 94.208-110.592 2.048-14.336 4.096-28.672 4.096-43.008 0-14.336-2.048-28.672-4.096-43.008-55.296-8.192-96.256-55.296-94.208-110.592 0-12.288 2.048-26.624 6.144-36.864L835.584 512c-6.144 6.144-14.336 14.336-22.528 18.432-14.336 14.336-34.816 22.528-55.296 24.576-20.48-2.048-40.96-8.192-57.344-22.528-8.192-6.144-14.336-12.288-22.528-18.432l-57.344 32.768c4.096 12.288 6.144 24.576 6.144 36.864 2.048 55.296-38.912 102.4-94.208 110.592v40.96c0 14.336 2.048 28.672 4.096 43.008 55.296 8.192 96.256 55.296 94.208 110.592 0 12.288-2.048 26.624-6.144 36.864l53.248 30.72c6.144-8.192 14.336-14.336 22.528-20.48 16.384-14.336 36.864-22.528 57.344-24.576 20.48 2.048 40.96 10.24 57.344 24.576 8.192 6.144 14.336 12.288 22.528 20.48l53.248-30.72z m-139.264-88.064c-59.392 4.096-110.592-40.96-114.688-100.352s40.96-110.592 100.352-114.688 110.592 40.96 114.688 100.352v6.144c2.048 59.392-43.008 106.496-100.352 108.544z m0-165.888c-32.768-2.048-61.44 22.528-63.488 55.296-2.048 32.768 22.528 61.44 55.296 63.488 32.768 2.048 61.44-22.528 63.488-55.296v-4.096c2.048-30.72-22.528-57.344-55.296-59.392z m-167.936-145.408l4.096-6.144c2.048-2.048 2.048-2.048 4.096-6.144" p-id="2730"></path></svg>