<svg t="1596505185545" class="icon" viewBox="0 0 1024 1024" version="1.1" xmlns="http://www.w3.org/2000/svg" p-id="1911" width="200" height="200"><path d="M870.4 1024H153.6c-42.496 0-76.8-34.304-76.8-76.8v-409.6c0-42.496 34.304-76.8 76.8-76.8h716.8c42.496 0 76.8 34.304 76.8 76.8v409.6c0 42.496-34.304 76.8-76.8 76.8zM153.6 512c-14.336 0-25.6 11.264-25.6 25.6v409.6c0 14.336 11.264 25.6 25.6 25.6h716.8c14.336 0 25.6-11.264 25.6-25.6v-409.6c0-14.336-11.264-25.6-25.6-25.6H153.6z" fill="" p-id="1912"></path><path d="M524.8 1009.152h-25.6c-7.168 0-12.8-5.632-12.8-12.8V230.912c0-7.168 5.632-12.8 12.8-12.8h25.6c7.168 0 12.8 5.632 12.8 12.8v765.44c0 7.168-5.632 12.8-12.8 12.8z" fill="" p-id="1913"></path><path d="M947.2 204.8h-75.264c27.648-58.88 27.136-118.272-6.656-158.72-27.648-33.28-73.216-47.104-127.488-39.424-49.664 7.168-102.4 31.744-147.968 70.144-33.792 28.672-60.416 60.928-77.824 94.208-17.92-33.792-45.056-66.56-77.824-94.208C389.12 38.4 336.384 13.312 286.72 6.144 232.448-1.024 186.88 12.8 159.232 46.08s-33.792 80.384-16.896 132.096c3.072 8.704 6.144 17.92 10.24 26.624H76.8C34.304 204.8 0 239.104 0 281.6v153.6c0 42.496 34.304 76.8 76.8 76.8h870.4c42.496 0 76.8-34.304 76.8-76.8V281.6c0-42.496-34.304-76.8-76.8-76.8z m-324.096-89.088c38.4-32.256 81.408-52.736 122.368-58.88 7.168-1.024 14.336-1.536 20.48-1.536 26.624 0 47.616 8.192 60.416 23.552 24.064 28.672 16.896 77.824-12.288 125.952h-261.12c14.336-30.72 38.4-62.464 70.144-89.088z m-432.128 46.592c-11.264-34.816-8.704-64.512 7.68-83.456 12.8-15.36 33.792-23.552 60.416-23.552 6.656 0 13.312 0.512 20.48 1.536 40.448 5.632 83.968 26.624 122.368 58.88 31.232 26.112 55.808 57.344 70.656 89.088H210.944c-8.704-13.824-15.36-28.16-19.968-42.496zM972.8 435.2c0 14.336-11.264 25.6-25.6 25.6H76.8c-14.336 0-25.6-11.264-25.6-25.6V281.6c0-14.336 11.264-25.6 25.6-25.6h870.4c14.336 0 25.6 11.264 25.6 25.6v153.6z" fill="" p-id="1914"></path><path d="M947.2 204.8h-75.264c27.648-58.88 27.136-118.272-6.656-158.72-27.648-33.28-73.216-47.104-127.488-39.424-49.664 7.168-102.4 31.744-147.968 70.144-33.792 28.672-60.416 60.928-77.824 94.208-17.92-33.792-45.056-66.56-77.824-94.208C389.12 38.4 336.384 13.312 286.72 6.144 232.448-1.024 186.88 12.8 159.232 46.08c-27.648 33.28-33.792 80.384-16.896 132.096 3.072 8.704 6.144 17.92 10.24 26.624H76.8C34.304 204.8 0 239.104 0 281.6v153.6c0 42.496 34.304 76.8 76.8 76.8h4.608c-3.072 8.192-4.608 16.384-4.608 25.6v409.6c0 42.496 34.304 76.8 76.8 76.8h716.8c42.496 0 76.8-34.304 76.8-76.8v-409.6c0-9.216-1.536-17.408-4.608-25.6h4.608c42.496 0 76.8-34.304 76.8-76.8V281.6c0-42.496-34.304-76.8-76.8-76.8z m-324.096-89.088c38.4-32.256 81.408-52.736 122.368-58.88 7.168-1.024 14.336-1.536 20.48-1.536 26.624 0 47.616 8.192 60.416 23.552 24.064 28.672 16.896 77.824-12.288 125.952h-261.12c14.336-30.72 38.4-62.464 70.144-89.088z m-424.448-36.864c12.8-15.36 33.792-23.552 60.416-23.552 6.656 0 13.312 0.512 20.48 1.536 40.448 5.632 83.968 26.624 122.368 58.88 31.232 26.112 55.808 57.344 70.656 89.088H210.944c-8.704-13.824-15.36-28.16-19.968-42.496-11.264-34.816-8.704-64.512 7.68-83.456zM51.2 435.2V281.6c0-14.336 11.264-25.6 25.6-25.6h409.6v204.8H76.8c-14.336 0-25.6-11.264-25.6-25.6z m76.8 512v-409.6c0-14.336 11.264-25.6 25.6-25.6h332.8v460.8H153.6c-14.336 0-25.6-11.264-25.6-25.6z m768-409.6v409.6c0 14.336-11.264 25.6-25.6 25.6h-332.8v-460.8h332.8c14.336 0 25.6 11.264 25.6 25.6z m76.8-102.4c0 14.336-11.264 25.6-25.6 25.6h-409.6V256h409.6c14.336 0 25.6 11.264 25.6 25.6v153.6z" fill="" p-id="1915"></path></svg>