<svg t="1607481249396" class="icon" viewBox="0 0 1024 1024" version="1.1" xmlns="http://www.w3.org/2000/svg" p-id="3113" width="25" height="25"><path d="M926.290625 56.2878125a31.2346875 31.2346875 0 0 0-31.243125-4.21875c-167.9625 69.8990625-197.9521875 63.0571875-364.3190625 24.97218751-15.6215625-3.534375-31.813125-7.2984375-49.4878125-11.28937501-54.9609375-12.315-109.46625001-14.9371875-161.805-7.8675-42.1903125 5.8153125-83.0128125 17.788125-121.44 35.690625-65.79375001 30.673125-102.283125 68.53125001-103.7653125 70.126875-5.7009375 6.0440625-8.66625001 13.9125-8.66625 21.8934375-0.2278125 4.5609375 0.684375 9.350625 2.623125 13.7971875L423.42874999 963.95c5.1309375 11.745 16.648125 18.8146875 28.73437501 18.8146875 4.21875001 0 8.4384375-0.7978125 12.54375-2.6221875 15.849375-6.95625001 23.034375-25.42875001 16.078125-41.278125L328.671875 591.7625c4.333125-13.455 17.3315625-47.32125001 47.0934375-79.591875 50.4-54.733125 123.9478125-79.933125 218.3625-74.8021875 5.81625001 0.3421875 11.6315625 0.4565625 17.3325 0.4565625 112.20375001 0 203.7675-59.865 265.7990625-174.0065625 47.2078125-87.0028125 60.320625-174.5765625 60.890625-178.2253125 1.5965625-11.175-2.85-22.35-11.859375-29.3053125zM821.38625001 235.1975C767.9065625 332.8053125 692.534375 379.784375 597.4353125 374.6534375c-62.829375-3.4209375-119.386875 5.2453125-168.076875 25.42875-39.7959375 16.53375001-74.11875001 40.8215625-102.283125 72.17906249a290.685 290.685 0 0 0-30.7875 41.27812501l-141.39375-319.9621875c14.480625-11.745 38.8828125-29.0765625 72.178125-44.2425 74.233125-33.86625001 155.1928125-41.3925 240.6-22.235625 17.559375 3.9909375 33.751875 7.640625 49.25906251 11.175 87.6871875 20.0690625 140.4825 32.15625001 197.26874999 29.6475 42.87375001-1.8253125 85.40625001-11.745 149.1478125-35.5771875-8.66625001 29.1909375-22.006875 66.3646875-41.9625 102.853125z" p-id="3114"></path></svg>