<?xml version="1.0" standalone="no"?><!DOCTYPE svg PUBLIC "-//W3C//DTD SVG 1.1//EN" "http://www.w3.org/Graphics/SVG/1.1/DTD/svg11.dtd"><svg t="1561970513801" class="icon" viewBox="0 0 1097 1024" version="1.1" xmlns="http://www.w3.org/2000/svg" p-id="4252" width="68.5625" height="64" xmlns:xlink="http://www.w3.org/1999/xlink"><defs><style type="text/css"></style></defs><path d="M1024 713.142857V164.571429q0-7.428571-5.428571-12.857143T1005.714286 146.285714H91.428571q-7.428571 0-12.857142 5.428572T73.142857 164.571429v548.571428q0 7.428571 5.428572 12.857143T91.428571 731.428571h914.285715q7.428571 0 12.857143-5.428571t5.428571-12.857143z m73.142857-548.571428v548.571428q0 37.714286-26.857143 64.571429t-64.571428 26.857143H585.142857v73.142857h201.142857q8 0 13.142857 5.142857t5.142858 13.142857v36.571429q0 8-5.142858 13.142857t-13.142857 5.142857H310.857143q-8 0-13.142857-5.142857t-5.142857-13.142857v-36.571429q0-8 5.142857-13.142857t13.142857-5.142857h201.142857v-73.142857H91.428571q-37.714286 0-64.571428-26.857143t-26.857143-64.571429V164.571429q0-37.714286 26.857143-64.571429t64.571428-26.857143h914.285715q37.714286 0 64.571428 26.857143t26.857143 64.571429z" p-id="4253" ></path></svg>
