<svg t="1597285254638" class="icon" viewBox="0 0 1262 1024" version="1.1" xmlns="http://www.w3.org/2000/svg" p-id="1783" width="40" height="40"><path d="M1259.52 443.733333c0-3.413333-3.413333-10.24-6.826667-13.653333-3.413333-3.413333-6.826667-10.24-10.24-13.653333L894.293333 23.893333c-13.653333-17.066667-30.72-23.893333-51.2-23.893333H419.84c-20.48 0-37.546667 6.826667-51.2 23.893333L17.066667 416.426667c-3.413333 3.413333-6.826667 6.826667-10.24 13.653333-3.413333 3.413333-3.413333 10.24-6.826667 13.653333v23.893334c0 6.826667 3.413333 13.653333 3.413333 20.48l10.24 20.48c3.413333 3.413333 3.413333 6.826667 6.826667 6.826666l563.2 491.52c13.653333 10.24 27.306667 17.066667 44.373333 17.066667s30.72-6.826667 44.373334-17.066667l563.2-491.52 6.826666-6.826666c3.413333-6.826667 10.24-13.653333 10.24-20.48 3.413333-6.826667 3.413333-13.653333 3.413334-20.48 6.826667-6.826667 6.826667-17.066667 3.413333-23.893334zM631.466667 955.733333L68.266667 464.213333 419.84 68.266667h423.253333L1194.666667 464.213333 631.466667 955.733333z" p-id="1784"></path><path d="M621.226667 665.6l-256-232.106667c-13.653333-13.653333-34.133333-10.24-47.786667 3.413334-13.653333 13.653333-10.24 34.133333 3.413333 47.786666l296.96 269.653334c10.24 10.24 27.306667 10.24 40.96 0l296.96-269.653334c13.653333-13.653333 13.653333-34.133333 3.413334-47.786666s-34.133333-13.653333-47.786667-3.413334l-256 232.106667c-13.653333 6.826667-27.306667 6.826667-34.133333 0z" p-id="1785"></path></svg>