<svg t="1597287436848" class="icon" viewBox="0 0 1024 1024" version="1.1" xmlns="http://www.w3.org/2000/svg" p-id="3583" width="40" height="40"><path d="M512.009 1.001C230.671 1.001 2.585 229.133 2.585 510.594c0 281.41 228.086 509.539 509.424 509.539 281.319 0 509.406-228.129 509.406-509.539 0-281.461-228.087-509.593-509.406-509.593z m0 952.657c-244.242 0-442.955-198.761-442.955-443.064 0-244.369 198.713-443.119 442.955-443.119 244.246 0 443.001 198.75 443.001 443.119 0 244.303-198.755 443.064-443.001 443.064z" p-id="3584"></path><path d="M699.085 488.439c18.344 0 33.226-14.885 33.226-33.242 0-18.358-14.882-33.242-33.226-33.242H577.102l102.905-122.541c11.963-14.215 9.8-35.135-4.908-46.721-14.729-11.586-36.34-9.466-48.233 4.75L496.912 412.11c-0.29 0.343-0.563 0.694-0.836 1.045L374.963 264.387c-11.593-14.215-32.51-16.346-46.785-4.76-14.212 11.586-16.332 32.518-4.737 46.722l94.093 115.606h-94.958c-18.342 0-33.224 14.884-33.224 33.242 0 18.357 14.881 33.242 33.224 33.242h143.968v88.572H322.576c-18.342 0-33.224 14.886-33.224 33.245 0 18.345 14.881 33.229 33.224 33.229h143.968v166.19c0 18.36 14.881 33.189 33.224 33.189 18.342 0 33.223-14.829 33.223-33.189v-166.19h166.095c18.344 0 33.226-14.884 33.226-33.229 0-18.359-14.882-33.245-33.226-33.245H532.99v-88.572h166.095z" p-id="3585"></path></svg>